<?xml version="1.0" standalone="no"?>
<!DOCTYPE svg PUBLIC "-//W3C//DTD SVG 20010904//EN"
 "http://www.w3.org/TR/2001/REC-SVG-20010904/DTD/svg10.dtd">
<svg version="1.0" xmlns="http://www.w3.org/2000/svg"
 width="412.000000pt" height="412.000000pt" viewBox="0 0 412.000000 412.000000"
 preserveAspectRatio="xMidYMid meet">
<metadata>
Created by potrace 1.11, written by Peter Selinger 2001-2013
</metadata>
<g transform="translate(0.000000,412.000000) scale(0.100000,-0.100000)"
fill="#000000" stroke="none">
<path d="M1455 3830 c-682 -48 -1286 -91 -1342 -95 l-103 -7 0 -1674 c0 -1049
4 -1674 9 -1674 6 0 590 -40 1298 -90 1498 -104 1476 -103 1468 -90 -3 6 0 10
7 11 7 0 3 5 -9 11 -21 10 -22 12 -5 25 9 8 12 12 5 9 -15 -8 -23 15 -12 36 7
12 4 20 -8 27 -23 13 -8 14 16 2 13 -7 18 -6 18 4 0 8 -3 13 -6 11 -3 -2 -15
8 -25 22 -11 14 -14 22 -8 18 6 -3 13 -2 17 4 3 5 1 10 -6 10 -7 0 -4 7 7 16
10 8 14 13 7 10 -15 -8 -23 15 -12 36 7 12 4 20 -8 27 -23 13 -8 14 16 2 13
-7 18 -6 18 4 0 8 -3 13 -6 11 -3 -2 -15 8 -25 22 -11 14 -14 22 -8 18 6 -3
13 -2 17 4 3 5 1 10 -6 10 -7 0 -4 7 7 16 10 8 14 13 7 10 -15 -8 -23 15 -12
36 7 12 4 20 -8 27 -23 13 -8 14 16 2 13 -7 18 -6 18 4 0 8 -3 13 -6 11 -3 -2
-15 8 -25 22 -11 14 -14 22 -8 18 6 -3 13 -2 17 4 3 5 1 10 -6 10 -7 0 -4 7 7
16 10 8 14 13 7 10 -15 -8 -23 15 -12 36 7 12 4 20 -8 27 -23 13 -8 14 16 2
13 -7 18 -6 18 4 0 8 -3 13 -6 11 -3 -2 -15 8 -25 22 -11 14 -14 22 -8 18 6
-3 13 -2 17 4 3 5 1 10 -6 10 -7 0 -4 7 7 16 10 8 14 13 7 10 -15 -8 -23 15
-12 36 7 12 4 20 -8 27 -23 13 -8 14 16 2 13 -7 18 -6 18 4 0 8 -3 13 -6 11
-3 -2 -15 8 -25 22 -11 14 -14 22 -8 18 6 -3 13 -2 17 4 3 5 1 10 -6 10 -7 0
-4 7 7 16 10 8 14 13 7 10 -15 -8 -23 15 -12 36 7 12 4 20 -8 27 -23 13 -8 14
16 2 13 -7 18 -6 18 4 0 8 -3 13 -6 11 -3 -2 -15 8 -25 22 -11 14 -14 22 -8
18 6 -3 13 -2 17 4 3 5 1 10 -6 10 -7 0 -4 7 7 16 10 8 14 13 7 10 -15 -8 -23
15 -12 36 7 12 4 20 -8 27 -23 13 -8 14 16 2 13 -7 18 -6 18 4 0 8 -3 13 -6
11 -3 -2 -15 8 -25 22 -11 14 -14 22 -8 18 6 -3 13 -2 17 4 3 5 1 10 -6 10 -7
0 -4 7 7 16 10 8 14 13 7 10 -15 -8 -23 15 -12 36 7 12 4 20 -8 27 -23 13 -8
14 16 2 13 -7 18 -6 18 4 0 8 -3 13 -6 11 -3 -2 -15 8 -25 22 -11 14 -14 22
-8 18 6 -3 13 -2 17 4 3 5 1 10 -6 10 -7 0 -4 7 7 16 10 8 14 13 7 10 -15 -8
-23 15 -12 36 7 12 4 20 -8 27 -23 13 -8 14 16 2 13 -7 18 -6 18 4 0 8 -3 13
-6 11 -3 -2 -15 8 -25 22 -11 14 -14 22 -8 18 6 -3 13 -2 17 4 3 5 1 10 -6 10
-7 0 -4 7 7 16 10 8 14 13 7 10 -15 -8 -23 15 -12 36 7 12 4 20 -8 27 -23 13
-8 14 16 2 13 -7 18 -6 18 4 0 8 -3 13 -6 11 -3 -2 -15 8 -25 22 -11 14 -14
22 -8 18 6 -3 13 -2 17 4 3 5 1 10 -6 10 -7 0 -4 7 7 16 10 8 14 13 7 10 -15
-8 -23 15 -12 36 7 12 4 20 -8 27 -23 13 -8 14 16 2 13 -7 18 -6 18 4 0 8 -3
13 -6 11 -3 -2 -15 8 -25 22 -11 14 -14 22 -8 18 6 -3 13 -2 17 4 3 5 1 10 -6
10 -7 0 -4 7 7 16 10 8 14 13 7 10 -15 -8 -23 15 -12 36 7 12 4 20 -8 27 -23
13 -8 14 16 2 13 -7 18 -6 18 4 0 8 -3 13 -6 11 -3 -2 -15 8 -25 22 -11 14
-14 22 -8 18 6 -3 13 -2 17 4 3 5 1 10 -6 10 -7 0 -4 7 7 16 10 8 14 13 7 10
-15 -8 -23 15 -12 36 7 12 4 20 -8 27 -23 13 -8 14 16 2 13 -7 18 -6 18 4 0 8
-3 13 -6 11 -3 -2 -15 8 -25 22 -11 14 -14 22 -8 18 6 -3 13 -2 17 4 3 5 1 10
-6 10 -7 0 -4 7 7 16 10 8 14 13 7 10 -15 -8 -23 15 -12 36 7 12 4 20 -8 27
-23 13 -8 14 16 2 13 -7 18 -6 18 4 0 8 -3 13 -6 11 -3 -2 -15 8 -25 22 -11
14 -14 22 -8 18 6 -3 13 -2 17 4 3 5 1 10 -6 10 -7 0 -4 7 7 16 10 8 14 13 7
10 -15 -8 -23 15 -12 36 7 12 4 20 -8 27 -23 13 -8 14 16 2 13 -7 18 -6 18 4
0 8 -3 13 -6 11 -3 -2 -15 8 -25 22 -11 14 -14 22 -8 18 6 -3 13 -2 17 4 3 5
1 10 -6 10 -7 0 -4 7 7 16 10 8 14 13 7 10 -15 -8 -23 15 -12 36 7 12 4 20 -8
27 -23 13 -8 14 16 2 13 -7 18 -6 18 4 0 8 -3 13 -6 11 -3 -2 -15 8 -25 22
-11 14 -14 22 -8 18 6 -3 13 -2 17 4 3 5 1 10 -6 10 -7 0 -4 7 7 16 10 8 14
13 7 10 -15 -8 -23 15 -12 36 7 12 4 20 -8 27 -23 13 -8 14 16 2 13 -7 18 -6
18 4 0 8 -3 13 -6 11 -3 -2 -15 8 -25 22 -11 14 -14 22 -8 18 6 -3 13 -2 17 4
3 5 1 10 -6 10 -7 0 -4 7 7 16 10 8 14 13 7 10 -15 -8 -23 15 -12 36 7 12 4
20 -8 27 -23 13 -8 14 16 2 13 -7 18 -6 18 4 0 8 -3 13 -6 11 -3 -2 -15 8 -25
22 -11 14 -14 22 -8 18 6 -3 13 -2 17 4 3 5 1 10 -6 10 -7 0 -4 7 7 16 10 8
14 13 7 10 -15 -8 -23 15 -12 36 7 12 4 20 -8 27 -23 13 -8 14 16 2 13 -7 18
-6 18 4 0 8 -3 13 -6 11 -3 -2 -15 8 -25 22 -11 14 -14 22 -8 18 6 -3 13 -2
17 4 3 5 1 10 -6 10 -7 0 -4 7 7 16 10 8 14 13 7 10 -15 -8 -23 15 -12 36 7
12 4 20 -8 27 -23 13 -8 14 16 2 13 -7 18 -6 18 4 0 8 -3 13 -6 11 -3 -2 -15
8 -25 22 -11 14 -14 22 -8 18 6 -3 13 -2 17 4 3 5 1 10 -6 10 -7 0 -4 7 7 16
10 8 14 13 7 10 -15 -8 -23 15 -12 36 7 12 4 20 -8 27 -23 13 -8 14 16 2 13
-7 18 -6 18 4 0 8 -3 13 -6 11 -3 -2 -15 8 -25 22 -11 14 -14 22 -8 18 6 -3
13 -2 17 4 3 5 1 10 -6 10 -7 0 -4 7 7 16 10 8 14 13 7 10 -15 -8 -23 15 -12
36 7 12 4 20 -8 27 -23 13 -8 14 16 2 13 -7 18 -6 18 4 0 8 -3 13 -6 11 -3 -2
-15 8 -25 22 -11 14 -14 22 -8 18 6 -3 13 -2 17 4 3 5 1 10 -6 10 -7 0 -4 7 7
16 10 8 14 13 7 10 -15 -8 -23 15 -12 36 7 12 4 20 -8 27 -23 13 -8 14 16 2
13 -7 18 -6 18 4 0 8 -3 13 -6 11 -3 -2 -14 6 -23 18 -13 18 -13 23 -3 23 8 0
12 -4 9 -9 -3 -4 3 -5 12 -1 13 5 14 8 5 11 -9 3 -10 7 -2 11 24 15 -148 5
-1334 -79z m1325 -3616 c0 -8 -19 -13 -24 -6 -3 5 1 9 9 9 8 0 15 -2 15 -3z"/>
<path d="M2775 3731 c-3 -5 0 -13 6 -17 7 -4 9 -3 5 4 -3 5 0 13 6 15 9 4 10
6 1 6 -6 1 -14 -3 -18 -8z"/>
<path d="M2775 3571 c-3 -5 0 -13 6 -17 7 -4 9 -3 5 4 -3 5 0 13 6 15 9 4 10
6 1 6 -6 1 -14 -3 -18 -8z"/>
<path d="M2830 3530 c0 -16 -1 -680 -1 -1475 0 -795 1 -1458 1 -1475 l0 -30
645 0 645 0 0 1505 0 1505 -645 0 -645 0 0 -30z"/>
<path d="M2775 3411 c-3 -5 0 -13 6 -17 7 -4 9 -3 5 4 -3 5 0 13 6 15 9 4 10
6 1 6 -6 1 -14 -3 -18 -8z"/>
<path d="M2775 3251 c-3 -5 0 -13 6 -17 7 -4 9 -3 5 4 -3 5 0 13 6 15 9 4 10
6 1 6 -6 1 -14 -3 -18 -8z"/>
<path d="M2775 3091 c-3 -5 0 -13 6 -17 7 -4 9 -3 5 4 -3 5 0 13 6 15 9 4 10
6 1 6 -6 1 -14 -3 -18 -8z"/>
<path d="M2775 2931 c-3 -5 0 -13 6 -17 7 -4 9 -3 5 4 -3 5 0 13 6 15 9 4 10
6 1 6 -6 1 -14 -3 -18 -8z"/>
<path d="M2775 2771 c-3 -5 0 -13 6 -17 7 -4 9 -3 5 4 -3 5 0 13 6 15 9 4 10
6 1 6 -6 1 -14 -3 -18 -8z"/>
<path d="M2775 2611 c-3 -5 0 -13 6 -17 7 -4 9 -3 5 4 -3 5 0 13 6 15 9 4 10
6 1 6 -6 1 -14 -3 -18 -8z"/>
<path d="M2775 2451 c-3 -5 0 -13 6 -17 7 -4 9 -3 5 4 -3 5 0 13 6 15 9 4 10
6 1 6 -6 1 -14 -3 -18 -8z"/>
<path d="M2775 2291 c-3 -5 0 -13 6 -17 7 -4 9 -3 5 4 -3 5 0 13 6 15 9 4 10
6 1 6 -6 1 -14 -3 -18 -8z"/>
<path d="M2775 2131 c-3 -5 0 -13 6 -17 7 -4 9 -3 5 4 -3 5 0 13 6 15 9 4 10
6 1 6 -6 1 -14 -3 -18 -8z"/>
<path d="M2775 1971 c-3 -5 0 -13 6 -17 7 -4 9 -3 5 4 -3 5 0 13 6 15 9 4 10
6 1 6 -6 1 -14 -3 -18 -8z"/>
<path d="M2775 1811 c-3 -5 0 -13 6 -17 7 -4 9 -3 5 4 -3 5 0 13 6 15 9 4 10
6 1 6 -6 1 -14 -3 -18 -8z"/>
<path d="M2775 1651 c-3 -5 0 -13 6 -17 7 -4 9 -3 5 4 -3 5 0 13 6 15 9 4 10
6 1 6 -6 1 -14 -3 -18 -8z"/>
<path d="M2775 1491 c-3 -5 0 -13 6 -17 7 -4 9 -3 5 4 -3 5 0 13 6 15 9 4 10
6 1 6 -6 1 -14 -3 -18 -8z"/>
<path d="M2775 1331 c-3 -5 0 -13 6 -17 7 -4 9 -3 5 4 -3 5 0 13 6 15 9 4 10
6 1 6 -6 1 -14 -3 -18 -8z"/>
<path d="M2775 1171 c-3 -5 0 -13 6 -17 7 -4 9 -3 5 4 -3 5 0 13 6 15 9 4 10
6 1 6 -6 1 -14 -3 -18 -8z"/>
<path d="M2775 1011 c-3 -5 0 -13 6 -17 7 -4 9 -3 5 4 -3 5 0 13 6 15 9 4 10
6 1 6 -6 1 -14 -3 -18 -8z"/>
<path d="M2775 851 c-3 -5 0 -13 6 -17 7 -4 9 -3 5 4 -3 5 0 13 6 15 9 4 10 6
1 6 -6 1 -14 -3 -18 -8z"/>
<path d="M2775 691 c-3 -5 0 -13 6 -17 7 -4 9 -3 5 4 -3 5 0 13 6 15 9 4 10 6
1 6 -6 1 -14 -3 -18 -8z"/>
<path d="M2775 531 c-3 -5 0 -13 6 -17 7 -4 9 -3 5 4 -3 5 0 13 6 15 9 4 10 6
1 6 -6 1 -14 -3 -18 -8z"/>
<path d="M2775 371 c-3 -5 0 -13 6 -17 7 -4 9 -3 5 4 -3 5 0 13 6 15 9 4 10 6
1 6 -6 1 -14 -3 -18 -8z"/>
</g>
</svg>
